{
    "asset" : {
        "generator" : "Khronos glTF Blender I/O v1.7.33",
        "version" : "2.0"
    },
    "scene" : 0,
    "scenes" : [
        {
            "name" : "Scene",
            "nodes" : [
                7
            ]
        }
    ],
    "nodes" : [
        {
            "mesh" : 0,
            "name" : "Mesh_0"
        },
        {
            "mesh" : 1,
            "name" : "Mesh_1"
        },
        {
            "mesh" : 2,
            "name" : "Mesh_2"
        },
        {
            "mesh" : 3,
            "name" : "Mesh_4"
        },
        {
            "mesh" : 4,
            "name" : "Mesh_5"
        },
        {
            "children" : [
                0,
                1,
                2,
                3,
                4
            ],
            "name" : "5754c6a4dce942aa90793c09e21aea35.obj.cleaner.materialmerger.gle"
        },
        {
            "children" : [
                5
            ],
            "name" : "RootNode (model correction matrix)"
        },
        {
            "children" : [
                6
            ],
            "name" : "RootNode (gltf orientation matrix)",
            "rotation" : [
                -0.7071068286895752,
                0,
                0,
                0.7071068286895752
            ]
        }
    ],
    "materials" : [
        {
            "doubleSided" : true,
            "name" : "Android_7.1",
            "pbrMetallicRoughness" : {}
        },
        {
            "doubleSided" : true,
            "name" : "Audio",
            "pbrMetallicRoughness" : {}
        },
        {
            "doubleSided" : true,
            "name" : "But_Smart",
            "pbrMetallicRoughness" : {}
        },
        {
            "doubleSided" : true,
            "name" : "Smartphone",
            "pbrMetallicRoughness" : {}
        },
        {
            "doubleSided" : true,
            "name" : "default",
            "pbrMetallicRoughness" : {}
        }
    ],
    "meshes" : [
        {
            "name" : "Mesh_0",
            "primitives" : [
                {
                    "attributes" : {
                        "POSITION" : 0,
                        "NORMAL" : 1,
                        "TEXCOORD_0" : 2
                    },
                    "indices" : 3,
                    "material" : 0
                }
            ]
        },
        {
            "name" : "Mesh_1",
            "primitives" : [
                {
                    "attributes" : {
                        "POSITION" : 4,
                        "NORMAL" : 5
                    },
                    "indices" : 3,
                    "material" : 1
                }
            ]
        },
        {
            "name" : "Mesh_2",
            "primitives" : [
                {
                    "attributes" : {
                        "POSITION" : 6,
                        "NORMAL" : 7
                    },
                    "indices" : 8,
                    "material" : 2
                }
            ]
        },
        {
            "name" : "Mesh_4",
            "primitives" : [
                {
                    "attributes" : {
                        "POSITION" : 9,
                        "NORMAL" : 10
                    },
                    "indices" : 11,
                    "material" : 3
                }
            ]
        },
        {
            "name" : "Mesh_5",
            "primitives" : [
                {
                    "attributes" : {
                        "POSITION" : 12,
                        "NORMAL" : 13
                    },
                    "indices" : 14,
                    "material" : 4
                }
            ]
        }
    ],
    "accessors" : [
        {
            "bufferView" : 0,
            "componentType" : 5126,
            "count" : 6,
            "max" : [
                12.092663764953613,
                12.190644264221191,
                72.60753631591797
            ],
            "min" : [
                -18.2686824798584,
                -14.381048202514648,
                5.107456684112549
            ],
            "type" : "VEC3"
        },
        {
            "bufferView" : 1,
            "componentType" : 5126,
            "count" : 6,
            "type" : "VEC3"
        },
        {
            "bufferView" : 2,
            "componentType" : 5126,
            "count" : 6,
            "type" : "VEC2"
        },
        {
            "bufferView" : 3,
            "componentType" : 5123,
            "count" : 6,
            "type" : "SCALAR"
        },
        {
            "bufferView" : 4,
            "componentType" : 5126,
            "count" : 6,
            "max" : [
                -2.9905340671539307,
                4.350528717041016,
                74.65821075439453
            ],
            "min" : [
                -7.889758586883545,
                0.5876235961914062,
                73.76437377929688
            ],
            "type" : "VEC3"
        },
        {
            "bufferView" : 5,
            "componentType" : 5126,
            "count" : 6,
            "type" : "VEC3"
        },
        {
            "bufferView" : 6,
            "componentType" : 5126,
            "count" : 168,
            "max" : [
                9.688089370727539,
                13.103565216064453,
                60.35603332519531
            ],
            "min" : [
                8.312174797058105,
                11.666572570800781,
                56.843177795410156
            ],
            "type" : "VEC3"
        },
        {
            "bufferView" : 7,
            "componentType" : 5126,
            "count" : 168,
            "type" : "VEC3"
        },
        {
            "bufferView" : 8,
            "componentType" : 5123,
            "count" : 612,
            "type" : "SCALAR"
        },
        {
            "bufferView" : 9,
            "componentType" : 5126,
            "count" : 418,
            "max" : [
                13.238819122314453,
                14.89300537109375,
                76.89544677734375
            ],
            "min" : [
                -20.78261375427246,
                -15.244050025939941,
                3.254781723022461
            ],
            "type" : "VEC3"
        },
        {
            "bufferView" : 10,
            "componentType" : 5126,
            "count" : 418,
            "type" : "VEC3"
        },
        {
            "bufferView" : 11,
            "componentType" : 5123,
            "count" : 1260,
            "type" : "SCALAR"
        },
        {
            "bufferView" : 12,
            "componentType" : 5126,
            "count" : 400,
            "max" : [
                0.8681449294090271,
                9.195098876953125,
                76.72350311279297
            ],
            "min" : [
                -14.389213562011719,
                -4.21170711517334,
                62.47248840332031
            ],
            "type" : "VEC3"
        },
        {
            "bufferView" : 13,
            "componentType" : 5126,
            "count" : 400,
            "type" : "VEC3"
        },
        {
            "bufferView" : 14,
            "componentType" : 5123,
            "count" : 600,
            "type" : "SCALAR"
        }
    ],
    "bufferViews" : [
        {
            "buffer" : 0,
            "byteLength" : 72,
            "byteOffset" : 0
        },
        {
            "buffer" : 0,
            "byteLength" : 72,
            "byteOffset" : 72
        },
        {
            "buffer" : 0,
            "byteLength" : 48,
            "byteOffset" : 144
        },
        {
            "buffer" : 0,
            "byteLength" : 12,
            "byteOffset" : 192
        },
        {
            "buffer" : 0,
            "byteLength" : 72,
            "byteOffset" : 204
        },
        {
            "buffer" : 0,
            "byteLength" : 72,
            "byteOffset" : 276
        },
        {
            "buffer" : 0,
            "byteLength" : 2016,
            "byteOffset" : 348
        },
        {
            "buffer" : 0,
            "byteLength" : 2016,
            "byteOffset" : 2364
        },
        {
            "buffer" : 0,
            "byteLength" : 1224,
            "byteOffset" : 4380
        },
        {
            "buffer" : 0,
            "byteLength" : 5016,
            "byteOffset" : 5604
        },
        {
            "buffer" : 0,
            "byteLength" : 5016,
            "byteOffset" : 10620
        },
        {
            "buffer" : 0,
            "byteLength" : 2520,
            "byteOffset" : 15636
        },
        {
            "buffer" : 0,
            "byteLength" : 4800,
            "byteOffset" : 18156
        },
        {
            "buffer" : 0,
            "byteLength" : 4800,
            "byteOffset" : 22956
        },
        {
            "buffer" : 0,
            "byteLength" : 1200,
            "byteOffset" : 27756
        }
    ],
    "buffers" : [
        {
            "byteLength" : 28956,
            "uri" : "data:application/octet-stream;base64,"
        }
    ]
}
